<?xml version="1.0" encoding="UTF-8" standalone="no"?>
<svg
   xmlns:dc="http://purl.org/dc/elements/1.1/"
   xmlns:cc="http://creativecommons.org/ns#"
   xmlns:rdf="http://www.w3.org/1999/02/22-rdf-syntax-ns#"
   xmlns:svg="http://www.w3.org/2000/svg"
   xmlns="http://www.w3.org/2000/svg"
   xmlns:sodipodi="http://sodipodi.sourceforge.net/DTD/sodipodi-0.dtd"
   xmlns:inkscape="http://www.inkscape.org/namespaces/inkscape"
   id="Ebene_1"
   data-name="Ebene 1"
   viewBox="0 0 122.38015 38.008657"
   version="1.1"
   sodipodi:docname="logo.svg"
   width="122.38015"
   height="38.008656"
   inkscape:version="1.0.1 (3bc2e813f5, 2020-09-07)">
  <metadata
     id="metadata27">
    <rdf:RDF>
      <cc:Work
         rdf:about="">
        <dc:format>image/svg+xml</dc:format>
        <dc:type
           rdf:resource="http://purl.org/dc/dcmitype/StillImage" />
        <dc:title></dc:title>
      </cc:Work>
    </rdf:RDF>
  </metadata>
  <sodipodi:namedview
     pagecolor="#ffffff"
     bordercolor="#666666"
     borderopacity="1"
     objecttolerance="10"
     gridtolerance="10"
     guidetolerance="10"
     inkscape:pageopacity="0"
     inkscape:pageshadow="2"
     inkscape:window-width="1708"
     inkscape:window-height="1016"
     id="namedview25"
     showgrid="false"
     lock-margins="true"
     fit-margin-top="1"
     fit-margin-left="1"
     fit-margin-right="1"
     fit-margin-bottom="1"
     inkscape:zoom="5.1105393"
     inkscape:cx="24.420829"
     inkscape:cy="-24.154934"
     inkscape:window-x="72"
     inkscape:window-y="27"
     inkscape:window-maximized="0"
     inkscape:current-layer="Ebene_1" />
  <defs
     id="defs4">
    <style
       id="style2">.cls-1{fill:#002b61;}.cls-2{fill:#ff1a33;}</style>
  </defs>
  <g
     id="Gruppe_198"
     data-name="Gruppe 198"
     transform="translate(1.0001503,1.0035062)">
    <path
       id="Pfad_250"
       data-name="Pfad 250"
       class="cls-1"
       d="M 20.37,6.9 V 0 h 2.49 v 6.9 a 4.92,4.92 0 0 1 -4.84,5 h -0.23 a 4.91,4.91 0 0 1 -5.06,-4.76 1.77,1.77 0 0 1 0,-0.23 V 0 h 2.5 v 6.9 a 2.58,2.58 0 1 0 5.15,0.31 V 6.9" />
    <path
       id="Pfad_251"
       data-name="Pfad 251"
       class="cls-1"
       d="M 34.73,0 V 2.25 H 31.4 v 9.39 H 28.91 V 2.25 H 25.59 V 0 Z" />
    <path
       id="Pfad_252"
       data-name="Pfad 252"
       class="cls-1"
       d="M 45.1,6.9 V 0 h 2.5 v 6.9 a 5.07,5.07 0 0 1 -10.14,0 V 0 H 40 v 6.9 a 2.58,2.58 0 1 0 5.15,0.32 1.71,1.71 0 0 0 0,-0.32" />
    <path
       id="Pfad_253"
       data-name="Pfad 253"
       class="cls-1"
       d="m 50.32,0 h 5.15 a 3.84,3.84 0 0 1 4,3.66 v 0.17 a 3.74,3.74 0 0 1 -2.08,3.4 l 2.5,4.4 H 57.22 L 55,7.57 h -2.19 v 4.07 h -2.49 z m 5.07,2.25 h -2.58 v 3.07 h 2.58 A 1.52,1.52 0 0 0 57,3.88 V 3.82 A 1.54,1.54 0 0 0 55.52,2.24 h -0.1" />
    <path
       id="Pfad_254"
       data-name="Pfad 254"
       class="cls-1"
       d="m 70.8,9.39 v 2.25 H 62.08 V 0 h 8.56 v 2.25 h -6.07 v 2.32 h 4.74 v 2.25 h -4.74 v 2.57 z" />
    <path
       id="Pfad_255"
       data-name="Pfad 255"
       class="cls-1"
       d="m 11.14,26.2 -1.58,1.58 a 4,4 0 0 0 -3.24,-1.66 3.82,3.82 0 0 0 0,7.64 4.34,4.34 0 0 0 3.4,-1.66 l 1.5,1.58 A 6.25,6.25 0 0 1 6.32,36 6.0701503,6.0701503 0 0 1 5.82,23.87 h 0.5 a 6,6 0 0 1 4.82,2.33" />
    <path
       id="Pfad_256"
       data-name="Pfad 256"
       class="cls-1"
       d="M 23.77,35.75 H 21.28 V 31 h -5 v 4.73 H 13.75 V 24.12 h 2.49 v 4.65 h 5 v -4.65 h 2.49 z" />
    <path
       id="Pfad_257"
       data-name="Pfad 257"
       class="cls-1"
       d="m 29.82,33 -1,2.74 h -2.66 l 4.57,-11.63 h 2.66 L 38,35.75 H 35.3 L 34.3,33 Z m 2.24,-6 -1.41,3.82 h 2.82 z" />
    <path
       id="Pfad_258"
       data-name="Pfad 258"
       class="cls-1"
       d="m 70.8,33.51 v 2.24 H 62.08 V 24.12 h 8.56 v 2.24 h -6.07 v 2.33 h 4.74 v 2.24 h -4.74 v 2.58 z" />
    <path
       id="Pfad_259"
       data-name="Pfad 259"
       class="cls-1"
       d="M 83.92,24.12 V 35.75 H 81.76 L 76,28.35 v 7.4 H 73.5 V 24.12 h 2.16 l 5.74,7.4 v -7.4 z" />
    <path
       id="Pfad_260"
       data-name="Pfad 260"
       class="cls-1"
       d="m 97.89,29.44 v 4.32 A 6.62,6.62 0 0 1 92.83,36 6.0701503,6.0701503 0 1 1 92.33,23.87 h 0.5 a 6,6 0 0 1 4.82,2.33 l -1.58,1.58 a 4.05,4.05 0 0 0 -3.24,-1.67 3.83,3.83 0 0 0 -0.13,7.65 h 0.13 a 3.57,3.57 0 0 0 2.57,-0.91 v -1.58 h -2.08 v -1.83 z" />
    <path
       id="Pfad_261"
       data-name="Pfad 261"
       class="cls-1"
       d="m 109.35,33.51 v 2.24 h -8.73 V 24.12 h 8.56 v 2.24 h -6.07 v 2.33 h 4.74 v 2.24 h -4.74 v 2.58 z" />
    <path
       id="Pfad_262"
       data-name="Pfad 262"
       class="cls-1"
       d="m 112,27.28 c 0,-1.83 1.58,-3.41 4.07,-3.41 a 5,5 0 0 1 3.83,1.58 L 118.39,27 a 3.09,3.09 0 0 0 -2.16,-1 c -1,0 -1.58,0.58 -1.58,1.25 0,2.16 5.73,0.91 5.73,5.06 0,2.08 -1.58,3.66 -4.4,3.66 a 5.8,5.8 0 0 1 -4.4,-1.91 l 1.5,-1.5 a 3.73,3.73 0 0 0 2.74,1.25 c 1.25,0 1.91,-0.67 1.91,-1.5 0,-2.16 -5.73,-0.92 -5.73,-5.07" />
    <path
       id="Pfad_263"
       data-name="Pfad 263"
       class="cls-1"
       d="M 40.43,35.75 V 24.12 h 2.49 v 9.39 h 5.56 v 2.24 z" />
    <path
       id="Pfad_264"
       data-name="Pfad 264"
       class="cls-1"
       d="M 51.24,35.75 V 24.12 h 2.49 v 9.39 h 5.56 v 2.24 z" />
    <path
       id="Pfad_249"
       data-name="Pfad 249"
       class="cls-1"
       d="M 1.44,0 V 11.64 H 3.93 V 7.07 H 8.67 V 4.82 H 3.93 V 2.25 H 10 V 0 Z" />
  </g>
  <rect
     id="Rechteck_134"
     data-name="Rechteck 134"
     class="cls-2"
     y="17.623507"
     width="119.4"
     height="2.49"
     x="1.0001504" />
</svg>
