<svg width="157" height="74" viewBox="0 0 157 74" fill="none" xmlns="http://www.w3.org/2000/svg">
<path d="M156.269 36.6613C156.269 56.9396 139.886 73.3227 119.607 73.3227C99.3291 73.3227 82.946 56.9396 82.946 36.6613C82.946 16.383 99.3291 0 119.607 0C139.886 0 156.269 16.383 156.269 36.6613Z" fill="#F89625"/>
<path d="M12.3732 27.1523C11.2275 26.0066 9.85273 25.4338 8.13423 25.4338H1.83307L0 27.2669V47.7743H3.89527L5.72833 45.9412V39.7546H6.30117C7.9051 39.7546 9.2799 39.1818 10.4256 38.1507L12.2586 36.3176C13.5189 35.0574 14.0917 33.568 14.0917 31.735C14.0917 29.7873 13.5189 28.298 12.3732 27.1523ZM5.72833 31.1621H6.30117C7.10313 31.1621 7.67597 31.5058 8.01967 32.0787C8.2488 32.4224 8.36337 32.8806 8.36337 33.3389C8.36337 33.568 8.36337 33.6826 8.36337 33.9117H5.95747C5.8429 33.9117 5.8429 33.9117 5.8429 33.9117V33.7972V31.1621H5.72833Z" fill="white"/>
<path d="M36.6616 28.298C34.5994 26.2358 32.1935 25.2047 29.2148 25.2047C26.3506 25.2047 23.8301 26.2358 21.7679 28.298L19.9349 30.131C17.8727 32.1932 16.8416 34.5991 16.8416 37.5779C16.8416 40.442 17.8727 42.9625 19.9349 45.0247C21.9971 47.0869 24.403 48.118 27.3817 48.118C30.2459 48.118 32.7663 47.0869 34.8285 45.0247L36.6616 43.1917C38.7238 41.1295 39.7549 38.7236 39.7549 35.7448C39.7549 32.7661 38.7238 30.3602 36.6616 28.298ZM23.8301 32.0787C24.9758 31.3913 26.1215 30.933 27.4963 30.933C29.3293 30.933 30.8187 31.6204 32.1935 32.8807C33.4537 34.1409 34.1411 35.7448 34.1411 37.5779C34.1411 38.8381 33.7974 40.0984 32.9955 41.244C31.8498 41.9314 30.7041 42.3897 29.3293 42.3897C27.4963 42.3897 26.0069 41.7023 24.7467 40.442C23.4864 39.1818 22.799 37.5779 22.799 35.8594C22.6845 34.4846 23.0282 33.2243 23.8301 32.0787Z" fill="white"/>
<path d="M48.6911 42.046H55.336V45.9412L53.5029 47.7743H42.7336V27.2669L44.5667 25.4338H48.462V41.9314C48.462 42.046 48.462 42.046 48.462 42.046C48.5765 42.046 48.5765 42.046 48.6911 42.046Z" fill="white"/>
<path d="M64.1577 42.046H70.8025V45.9412L68.9695 47.7743H58.2002V27.2669L60.0333 25.4338H63.9285V41.9314C63.9285 42.046 63.9285 42.046 63.9285 42.046C64.0431 42.046 64.1577 42.046 64.1577 42.046Z" fill="white"/>
<path d="M75.6146 25.4338H79.5098V45.9412L77.6768 47.7743H73.7815V27.2669L75.6146 25.4338Z" fill="white"/>
<path d="M89.3618 32.0787C88.5598 33.2244 88.2161 34.37 88.2161 35.6303C88.2161 37.6925 89.0181 39.411 90.7366 40.6712C91.9968 41.7023 93.4862 42.2751 94.861 42.2751C96.2358 42.2751 97.6106 41.8169 98.8708 40.7858L101.277 43.8791L99.4437 45.7121C99.2145 45.9413 98.8708 46.1704 98.5271 46.3995C96.9232 47.4306 95.0901 47.8889 93.0279 47.8889C90.0492 47.8889 87.6433 46.8578 85.5811 44.7956C83.5189 42.7334 82.4878 40.3275 82.4878 37.3488C82.4878 34.4846 83.5189 31.9641 85.5811 29.9019L87.4142 28.0689C89.4764 26.0067 91.9968 24.9756 94.861 24.9756C97.3815 24.9756 99.4437 25.7775 101.277 27.2669L98.8708 30.3602L97.0378 32.1933C95.7775 31.2767 94.4027 30.7039 92.9134 30.7039C91.7677 30.933 90.5075 31.3913 89.3618 32.0787Z" fill="white"/>
<path d="M119.951 25.5484L114.223 38.609V45.9412L112.504 47.7743H108.494V40.442L102.766 27.2669L104.599 25.4338H108.953L111.817 32.5369L113.879 27.2669L115.712 25.5484H119.951Z" fill="white"/>
<path d="M10.0819 30.131C9.6236 29.4436 9.05077 28.9854 8.13423 28.9854H5.8429C5.4992 28.9854 5.38463 29.0999 5.38463 29.4436V33.7972C5.38463 34.1409 5.4992 34.2554 5.8429 34.2554H8.13423C9.05077 34.2554 9.6236 33.9117 10.0819 33.1098C10.311 32.6515 10.5401 32.0787 10.5401 31.5058C10.5401 31.0476 10.4256 30.5893 10.0819 30.131ZM8.2488 34.0263H5.95747C5.8429 34.0263 5.8429 34.0263 5.8429 34.0263V33.9117V31.2767H6.41573C7.2177 31.2767 7.79053 31.6204 8.13423 32.1932C8.36337 32.5369 8.47793 32.9952 8.47793 33.4535C8.36337 33.6826 8.36337 33.7972 8.2488 34.0263ZM10.0819 30.131C9.6236 29.4436 9.05077 28.9854 8.13423 28.9854H5.8429C5.4992 28.9854 5.38463 29.0999 5.38463 29.4436V33.7972C5.38463 34.1409 5.4992 34.2554 5.8429 34.2554H8.13423C9.05077 34.2554 9.6236 33.9117 10.0819 33.1098C10.311 32.6515 10.5401 32.0787 10.5401 31.5058C10.5401 31.0476 10.4256 30.5893 10.0819 30.131ZM8.2488 34.0263H5.95747C5.8429 34.0263 5.8429 34.0263 5.8429 34.0263V33.9117V31.2767H6.41573C7.2177 31.2767 7.79053 31.6204 8.13423 32.1932C8.36337 32.5369 8.47793 32.9952 8.47793 33.4535C8.36337 33.6826 8.36337 33.7972 8.2488 34.0263ZM10.0819 30.131C9.6236 29.4436 9.05077 28.9854 8.13423 28.9854H5.8429C5.4992 28.9854 5.38463 29.0999 5.38463 29.4436V33.7972C5.38463 34.1409 5.4992 34.2554 5.8429 34.2554H8.13423C9.05077 34.2554 9.6236 33.9117 10.0819 33.1098C10.311 32.6515 10.5401 32.0787 10.5401 31.5058C10.5401 31.0476 10.4256 30.5893 10.0819 30.131ZM8.2488 34.0263H5.95747C5.8429 34.0263 5.8429 34.0263 5.8429 34.0263V33.9117V31.2767H6.41573C7.2177 31.2767 7.79053 31.6204 8.13423 32.1932C8.36337 32.5369 8.47793 32.9952 8.47793 33.4535C8.36337 33.6826 8.36337 33.7972 8.2488 34.0263ZM10.0819 30.131C9.6236 29.4436 9.05077 28.9854 8.13423 28.9854H5.8429C5.4992 28.9854 5.38463 29.0999 5.38463 29.4436V33.7972C5.38463 34.1409 5.4992 34.2554 5.8429 34.2554H8.13423C9.05077 34.2554 9.6236 33.9117 10.0819 33.1098C10.311 32.6515 10.5401 32.0787 10.5401 31.5058C10.5401 31.0476 10.4256 30.5893 10.0819 30.131ZM8.2488 34.0263H5.95747C5.8429 34.0263 5.8429 34.0263 5.8429 34.0263V33.9117V31.2767H6.41573C7.2177 31.2767 7.79053 31.6204 8.13423 32.1932C8.36337 32.5369 8.47793 32.9952 8.47793 33.4535C8.36337 33.6826 8.36337 33.7972 8.2488 34.0263ZM12.3732 27.1523C11.2275 26.0066 9.85273 25.4338 8.13423 25.4338H1.83307L0 27.2669V47.7743H3.89527L5.72833 45.9412V39.7546H6.30117C7.9051 39.7546 9.2799 39.1818 10.4256 38.1507L12.2586 36.3176C13.5189 35.0574 14.0917 33.568 14.0917 31.735C14.0917 29.7873 13.5189 28.298 12.3732 27.1523ZM12.0295 35.9739C10.9984 37.005 9.73817 37.5779 8.13423 37.5779H5.8429C5.4992 37.5779 5.38463 37.6924 5.38463 38.0361V45.5975H2.17677V25.7775H8.13423C9.73817 25.7775 11.113 26.3503 12.1441 27.3814C13.2897 28.5271 13.748 29.9019 13.748 31.6204C13.748 33.3389 13.1752 34.8283 12.0295 35.9739ZM8.13423 28.9854H5.8429C5.4992 28.9854 5.38463 29.0999 5.38463 29.4436V33.7972C5.38463 34.1409 5.4992 34.2554 5.8429 34.2554H8.13423C9.05077 34.2554 9.6236 33.9117 10.0819 33.1098C10.311 32.6515 10.5401 32.0787 10.5401 31.5058C10.5401 30.933 10.4256 30.4747 10.1964 30.0165C9.73817 29.4436 9.05077 28.9854 8.13423 28.9854ZM8.2488 34.0263H5.95747C5.8429 34.0263 5.8429 34.0263 5.8429 34.0263V33.9117V31.2767H6.41573C7.2177 31.2767 7.79053 31.6204 8.13423 32.1932C8.36337 32.5369 8.47793 32.9952 8.47793 33.4535C8.36337 33.6826 8.36337 33.7972 8.2488 34.0263ZM10.0819 30.131C9.6236 29.4436 9.05077 28.9854 8.13423 28.9854H5.8429C5.4992 28.9854 5.38463 29.0999 5.38463 29.4436V33.7972C5.38463 34.1409 5.4992 34.2554 5.8429 34.2554H8.13423C9.05077 34.2554 9.6236 33.9117 10.0819 33.1098C10.311 32.6515 10.5401 32.0787 10.5401 31.5058C10.5401 31.0476 10.4256 30.5893 10.0819 30.131ZM8.2488 34.0263H5.95747C5.8429 34.0263 5.8429 34.0263 5.8429 34.0263V33.9117V31.2767H6.41573C7.2177 31.2767 7.79053 31.6204 8.13423 32.1932C8.36337 32.5369 8.47793 32.9952 8.47793 33.4535C8.36337 33.6826 8.36337 33.7972 8.2488 34.0263ZM10.0819 30.131C9.6236 29.4436 9.05077 28.9854 8.13423 28.9854H5.8429C5.4992 28.9854 5.38463 29.0999 5.38463 29.4436V33.7972C5.38463 34.1409 5.4992 34.2554 5.8429 34.2554H8.13423C9.05077 34.2554 9.6236 33.9117 10.0819 33.1098C10.311 32.6515 10.5401 32.0787 10.5401 31.5058C10.5401 31.0476 10.4256 30.5893 10.0819 30.131ZM8.2488 34.0263H5.95747C5.8429 34.0263 5.8429 34.0263 5.8429 34.0263V33.9117V31.2767H6.41573C7.2177 31.2767 7.79053 31.6204 8.13423 32.1932C8.36337 32.5369 8.47793 32.9952 8.47793 33.4535C8.36337 33.6826 8.36337 33.7972 8.2488 34.0263Z" fill="#262626"/>
<path d="M34.1411 30.8184C32.7663 29.4436 31.1624 28.7562 29.3293 28.7562C27.3817 28.7562 25.7778 29.4436 24.403 30.8184C23.0282 32.1932 22.3408 33.7972 22.3408 35.7448C22.3408 37.6925 23.0282 39.2964 24.403 40.5566C25.7778 41.9314 27.3817 42.6188 29.2148 42.6188C31.1624 42.6188 32.7663 41.9314 34.0266 40.5566C35.4014 39.1818 36.0888 37.5779 36.0888 35.7448C36.0888 33.7972 35.5159 32.1932 34.1411 30.8184ZM32.8809 41.1295C31.7352 41.8169 30.5896 42.2751 29.2148 42.2751C27.3817 42.2751 25.8923 41.5877 24.6321 40.3275C23.3719 39.0673 22.6845 37.4633 22.6845 35.7448C22.6845 34.4846 23.0282 33.2243 23.8301 32.0787C24.9758 31.3913 26.1215 30.933 27.4963 30.933C29.3293 30.933 30.8187 31.6204 32.1935 32.8807C33.4537 34.1409 34.1411 35.7448 34.1411 37.5779C34.0266 38.8381 33.5683 40.0984 32.8809 41.1295ZM34.1411 30.8184C32.7663 29.4436 31.1624 28.7562 29.3293 28.7562C27.3817 28.7562 25.7778 29.4436 24.403 30.8184C23.0282 32.1932 22.3408 33.7972 22.3408 35.7448C22.3408 37.6925 23.0282 39.2964 24.403 40.5566C25.7778 41.9314 27.3817 42.6188 29.2148 42.6188C31.1624 42.6188 32.7663 41.9314 34.0266 40.5566C35.4014 39.1818 36.0888 37.5779 36.0888 35.7448C36.0888 33.7972 35.5159 32.1932 34.1411 30.8184ZM32.8809 41.1295C31.7352 41.8169 30.5896 42.2751 29.2148 42.2751C27.3817 42.2751 25.8923 41.5877 24.6321 40.3275C23.3719 39.0673 22.6845 37.4633 22.6845 35.7448C22.6845 34.4846 23.0282 33.2243 23.8301 32.0787C24.9758 31.3913 26.1215 30.933 27.4963 30.933C29.3293 30.933 30.8187 31.6204 32.1935 32.8807C33.4537 34.1409 34.1411 35.7448 34.1411 37.5779C34.0266 38.8381 33.5683 40.0984 32.8809 41.1295ZM34.1411 30.8184C32.7663 29.4436 31.1624 28.7562 29.3293 28.7562C27.3817 28.7562 25.7778 29.4436 24.403 30.8184C23.0282 32.1932 22.3408 33.7972 22.3408 35.7448C22.3408 37.6925 23.0282 39.2964 24.403 40.5566C25.7778 41.9314 27.3817 42.6188 29.2148 42.6188C31.1624 42.6188 32.7663 41.9314 34.0266 40.5566C35.4014 39.1818 36.0888 37.5779 36.0888 35.7448C36.0888 33.7972 35.5159 32.1932 34.1411 30.8184ZM32.8809 41.1295C31.7352 41.8169 30.5896 42.2751 29.2148 42.2751C27.3817 42.2751 25.8923 41.5877 24.6321 40.3275C23.3719 39.0673 22.6845 37.4633 22.6845 35.7448C22.6845 34.4846 23.0282 33.2243 23.8301 32.0787C24.9758 31.3913 26.1215 30.933 27.4963 30.933C29.3293 30.933 30.8187 31.6204 32.1935 32.8807C33.4537 34.1409 34.1411 35.7448 34.1411 37.5779C34.0266 38.8381 33.5683 40.0984 32.8809 41.1295ZM34.1411 30.8184C32.7663 29.4436 31.1624 28.7562 29.3293 28.7562C27.3817 28.7562 25.7778 29.4436 24.403 30.8184C23.0282 32.1932 22.3408 33.7972 22.3408 35.7448C22.3408 37.6925 23.0282 39.2964 24.403 40.5566C25.7778 41.9314 27.3817 42.6188 29.2148 42.6188C31.1624 42.6188 32.7663 41.9314 34.0266 40.5566C35.4014 39.1818 36.0888 37.5779 36.0888 35.7448C36.0888 33.7972 35.5159 32.1932 34.1411 30.8184ZM32.8809 41.1295C31.7352 41.8169 30.5896 42.2751 29.2148 42.2751C27.3817 42.2751 25.8923 41.5877 24.6321 40.3275C23.3719 39.0673 22.6845 37.4633 22.6845 35.7448C22.6845 34.4846 23.0282 33.2243 23.8301 32.0787C24.9758 31.3913 26.1215 30.933 27.4963 30.933C29.3293 30.933 30.8187 31.6204 32.1935 32.8807C33.4537 34.1409 34.1411 35.7448 34.1411 37.5779C34.0266 38.8381 33.5683 40.0984 32.8809 41.1295ZM36.6616 28.298C34.5994 26.2358 32.1935 25.2047 29.2148 25.2047C26.3506 25.2047 23.8301 26.2358 21.7679 28.298L19.9349 30.131C17.8727 32.1932 16.8416 34.5991 16.8416 37.5779C16.8416 40.442 17.8727 42.9625 19.9349 45.0247C21.9971 47.0869 24.403 48.118 27.3817 48.118C30.2459 48.118 32.7663 47.0869 34.8285 45.0247L36.6616 43.1917C38.7238 41.1295 39.7549 38.7236 39.7549 35.7448C39.7549 32.7661 38.7238 30.3602 36.6616 28.298ZM36.4325 42.848C34.4848 44.9102 32.0789 45.8267 29.2148 45.8267C26.4652 45.8267 24.0593 44.7956 21.9971 42.848C20.0494 40.9003 19.0183 38.4944 19.0183 35.6303C19.0183 32.7661 20.0494 30.4747 21.9971 28.4125C23.9447 26.4649 26.3506 25.4338 29.1002 25.4338C31.9644 25.4338 34.3703 26.4649 36.3179 28.4125C38.2655 30.3602 39.2966 32.7661 39.2966 35.6303C39.4112 38.4944 38.3801 40.9003 36.4325 42.848ZM29.3293 28.8708C27.3817 28.8708 25.7778 29.5582 24.403 30.933C23.0282 32.3078 22.3408 33.9117 22.3408 35.8594C22.3408 37.807 23.0282 39.411 24.403 40.6712C25.7778 42.046 27.3817 42.7334 29.2148 42.7334C31.1624 42.7334 32.7663 42.046 34.0266 40.6712C35.4014 39.2964 36.0888 37.6924 36.0888 35.8594C36.0888 33.9117 35.4014 32.3078 34.0266 30.933C32.7663 29.4436 31.1624 28.8708 29.3293 28.8708ZM32.8809 41.1295C31.7352 41.8169 30.5896 42.2751 29.2148 42.2751C27.3817 42.2751 25.8923 41.5877 24.6321 40.3275C23.3719 39.0673 22.6845 37.4633 22.6845 35.7448C22.6845 34.4846 23.0282 33.2243 23.8301 32.0787C24.9758 31.3913 26.1215 30.933 27.4963 30.933C29.3293 30.933 30.8187 31.6204 32.1935 32.8807C33.4537 34.1409 34.1411 35.7448 34.1411 37.5779C34.0266 38.8381 33.5683 40.0984 32.8809 41.1295ZM34.1411 30.8184C32.7663 29.4436 31.1624 28.7562 29.3293 28.7562C27.3817 28.7562 25.7778 29.4436 24.403 30.8184C23.0282 32.1932 22.3408 33.7972 22.3408 35.7448C22.3408 37.6925 23.0282 39.2964 24.403 40.5566C25.7778 41.9314 27.3817 42.6188 29.2148 42.6188C31.1624 42.6188 32.7663 41.9314 34.0266 40.5566C35.4014 39.1818 36.0888 37.5779 36.0888 35.7448C36.0888 33.7972 35.5159 32.1932 34.1411 30.8184ZM32.8809 41.1295C31.7352 41.8169 30.5896 42.2751 29.2148 42.2751C27.3817 42.2751 25.8923 41.5877 24.6321 40.3275C23.3719 39.0673 22.6845 37.4633 22.6845 35.7448C22.6845 34.4846 23.0282 33.2243 23.8301 32.0787C24.9758 31.3913 26.1215 30.933 27.4963 30.933C29.3293 30.933 30.8187 31.6204 32.1935 32.8807C33.4537 34.1409 34.1411 35.7448 34.1411 37.5779C34.0266 38.8381 33.5683 40.0984 32.8809 41.1295ZM34.1411 30.8184C32.7663 29.4436 31.1624 28.7562 29.3293 28.7562C27.3817 28.7562 25.7778 29.4436 24.403 30.8184C23.0282 32.1932 22.3408 33.7972 22.3408 35.7448C22.3408 37.6925 23.0282 39.2964 24.403 40.5566C25.7778 41.9314 27.3817 42.6188 29.2148 42.6188C31.1624 42.6188 32.7663 41.9314 34.0266 40.5566C35.4014 39.1818 36.0888 37.5779 36.0888 35.7448C36.0888 33.7972 35.5159 32.1932 34.1411 30.8184ZM32.8809 41.1295C31.7352 41.8169 30.5896 42.2751 29.2148 42.2751C27.3817 42.2751 25.8923 41.5877 24.6321 40.3275C23.3719 39.0673 22.6845 37.4633 22.6845 35.7448C22.6845 34.4846 23.0282 33.2243 23.8301 32.0787C24.9758 31.3913 26.1215 30.933 27.4963 30.933C29.3293 30.933 30.8187 31.6204 32.1935 32.8807C33.4537 34.1409 34.1411 35.7448 34.1411 37.5779C34.0266 38.8381 33.5683 40.0984 32.8809 41.1295Z" fill="#262626"/>
<path d="M48.6903 42.046C48.5757 42.046 48.5757 42.046 48.5757 42.046V41.9314V25.4338H44.6805L42.8474 27.2669V47.7743H53.6167L55.4497 45.9412V42.046H48.6903ZM54.9915 45.5975H44.9096V25.7775H48.1175V41.9314C48.1175 42.2751 48.232 42.3897 48.5757 42.3897H54.9915V45.5975Z" fill="#262626"/>
<path d="M64.1578 42.046C64.0433 42.046 64.0433 42.046 64.0433 42.046V41.9314V25.4338H60.148L58.3149 27.2669V47.7743H69.0842L70.9173 45.9412V42.046H64.1578ZM70.5736 45.5975H60.4917V25.7775H63.6996V41.9314C63.6996 42.2751 63.8141 42.3897 64.1578 42.3897H70.5736V45.5975V45.5975Z" fill="#262626"/>
<path d="M75.6146 25.4338L73.7815 27.2669V47.7743H77.6768L79.5098 45.9412V25.4338H75.6146ZM79.1661 45.5975H75.9583V25.7775H79.1661V45.5975Z" fill="#262626"/>
<path d="M94.9767 42.2751C93.4874 42.2751 92.1126 41.8169 90.8523 40.6712C89.1338 39.411 88.3318 37.6925 88.3318 35.6303C88.2173 34.37 88.561 33.2243 89.363 32.0787C90.5086 31.2767 91.7688 30.933 93.0291 30.933C94.5184 30.933 95.8933 31.3913 97.1535 32.4224L98.9866 30.5893L101.392 27.496C99.5594 26.0066 97.3826 25.2047 94.9767 25.2047C91.998 25.2047 89.5921 26.2358 87.5299 28.298L85.6968 30.131C83.6346 32.1932 82.6035 34.5991 82.6035 37.5779C82.6035 40.442 83.6346 42.9625 85.6968 45.0247C87.759 47.0869 90.2795 48.118 93.1437 48.118C95.2059 48.118 97.0389 47.6598 98.6428 46.6287C98.9865 46.3995 99.2157 46.1704 99.5594 45.9412L101.392 44.1082L98.9866 41.0149C97.7263 41.8168 96.3515 42.2751 94.9767 42.2751ZM94.8622 45.8267C91.998 45.8267 89.5921 44.7956 87.6445 42.848C85.6968 40.9003 84.6657 38.4944 84.6657 35.6303C84.6657 32.7661 85.6968 30.4747 87.6445 28.4125C89.5921 26.4649 91.998 25.4338 94.8622 25.4338C97.0389 25.4338 99.1011 26.1212 100.934 27.3814L98.9866 30.0165C97.7263 29.0999 96.4661 28.6417 94.9767 28.6417C94.1748 28.6417 93.2582 28.8708 92.3417 29.2145C91.3106 29.7873 90.5086 30.2456 89.8212 30.933C88.561 32.1932 87.8736 33.7972 87.8736 35.6303C87.8736 37.1196 88.3319 38.4944 89.2484 39.6401C89.9358 40.5566 90.7377 41.244 91.7688 41.7023C92.7999 42.2751 93.8311 42.5042 94.8622 42.5042C96.3515 42.5042 97.6117 42.046 98.7574 41.1295L100.82 43.7645C99.2157 45.2539 97.1535 45.8267 94.8622 45.8267Z" fill="#262626"/>
<path d="M115.712 25.5484L113.879 27.3814L111.817 32.5369L108.953 25.4338H104.599L102.766 27.2669L108.494 40.3275V47.6597H112.39L114.223 45.8267V38.4944L119.951 25.4338H115.712V25.5484ZM113.994 38.4944V45.5975H110.786V38.4944L105.172 25.7775H108.724L111.931 33.7972C112.046 34.0263 112.161 34.0263 112.39 34.0263C112.619 34.0263 112.733 33.9117 112.848 33.7972L116.056 25.8921H119.607L113.994 38.4944Z" fill="#262626"/>
</svg>
